<svg xmlns="http://www.w3.org/2000/svg" viewBox="0 0 488.64 364.99">
  <g id="Layer_2" data-name="Layer 2">
    <g id="Layer_1-2" data-name="Layer 1">
      <g>
        <g>
          <g>
            <path d="M308.32,143.3V71.49c-.37.22-.55.3-.71.42-4.38,3.39-8.77,6.77-13.12,10.21a2.17,2.17,0,0,0-.62,1.53q0,45.45,0,90.9c0,.36,0,.71.09,1.21L295,175q27.81-21.56,55.63-43.08a2.29,2.29,0,0,0,.92-2.09q0-45.33,0-90.65V37.53c-.6.44-1,.71-1.33,1-3.88,3.11-7.73,6.27-11.67,9.31A3.49,3.49,0,0,0,337.07,51q.06,34.35,0,68.7c0,.49,0,1.21-.26,1.45-2.18,1.81-4.44,3.52-6.9,5.44v-37c-.38.25-.59.38-.78.53-4.11,3.18-8.19,6.4-12.35,9.5a3.19,3.19,0,0,0-1.4,2.9q.08,17.08,0,34.16a2.06,2.06,0,0,1-.36,1.4C312.93,139.77,310.74,141.42,308.32,143.3Z" style="fill: #13a5d1"/>
            <path d="M247,70.41v1.71q0,23.76,0,47.53a2.44,2.44,0,0,0,1,2.18q13.32,10.24,26.6,20.57l1.06.79c.05-.52.11-.88.11-1.24,0-4.42,0-8.83,0-13.25a2,2,0,0,0-.9-1.84c-6.58-5.07-13.13-10.19-19.72-15.26a2.3,2.3,0,0,1-1-2c0-6.57,0-13.15,0-20,.5.34.83.54,1.14.78q17,13.22,34,26.45a2.4,2.4,0,0,1,.86,1.67q.07,28.13,0,56.24c0,.29,0,.58-.05,1.07-.46-.31-.81-.53-1.13-.78q-27.87-21.58-55.71-43.21a2.27,2.27,0,0,1-.8-1.57q-.06-45.84,0-91.7c0-.21,0-.43.05-.86.39.26.7.44,1,.65Q261.5,60.11,289.41,82a2,2,0,0,1,.81,1.31c0,6.71,0,13.42,0,20.13a1.78,1.78,0,0,1-.17.4Z" style="fill: #f58634"/>
            <path d="M308.32,143.3c2.42-1.88,4.61-3.53,6.74-5.28a2.06,2.06,0,0,0,.36-1.4q0-17.09,0-34.16a3.19,3.19,0,0,1,1.4-2.9c4.16-3.1,8.24-6.32,12.35-9.5.19-.15.4-.28.78-.53v37c2.46-1.92,4.72-3.63,6.9-5.44.29-.24.25-1,.26-1.45q0-34.35,0-68.7a3.49,3.49,0,0,1,1.49-3.15c3.94-3,7.79-6.2,11.67-9.31.36-.28.73-.55,1.33-1v1.62q0,45.33,0,90.65a2.29,2.29,0,0,1-.92,2.09Q322.82,153.4,295,175l-1.09.79c0-.5-.09-.85-.09-1.21q0-45.45,0-90.9a2.17,2.17,0,0,1,.62-1.53c4.35-3.44,8.74-6.82,13.12-10.21.16-.12.34-.2.71-.42Z" style="fill: #fff"/>
          </g>
          <path d="M233.2,252a14.4,14.4,0,1,1-14.4-14.4A14.4,14.4,0,0,1,233.2,252Z" style="fill: #111d5e"/>
          <path d="M331.24,252a14.41,14.41,0,1,1-14.4-14.4A14.4,14.4,0,0,1,331.24,252Z" style="fill: #111d5e"/>
          <path d="M165.52,65.76H96.6a7.62,7.62,0,1,1,0-15.23h68.92a7.62,7.62,0,0,1,0,15.23Z" style="fill: #f58634"/>
          <path d="M129,105H60.11a7.61,7.61,0,0,1,0-15.22H129A7.61,7.61,0,1,1,129,105Z" style="fill: #f58634"/>
          <path d="M147,143.93H78a7.62,7.62,0,0,1,0-15.23H147a7.62,7.62,0,0,1,0,15.23Z" style="fill: #f58634"/>
          <path d="M111,183.37H42a7.62,7.62,0,0,1,0-15.23H111a7.62,7.62,0,0,1,0,15.23Z" style="fill: #f58634"/>
          <path d="M374.81,230.24H167.41a11.42,11.42,0,0,1-11.13-14L201,22.84H146.73a11.42,11.42,0,1,1,0-22.84h68.6a11.42,11.42,0,0,1,11.13,14L181.77,207.4h193a11.42,11.42,0,1,1,0,22.84Z" style="fill: #f58634"/>
          <line x1="196.39" y1="41.32" x2="159.67" y2="200.24" style="fill: #f58634"/>
        </g>
        <text transform="translate(0 344.65)" style="font-size: 76.44632720947266px;fill: #fff;font-family: Montserrat-Bold, Montserrat;font-weight: 700">G<tspan x="58.94" y="0" style="letter-spacing: -0.00898685056336978em">r</tspan><tspan x="91.2" y="0">o</tspan><tspan x="141.27" y="0" style="letter-spacing: -0.006987643579478707em">c</tspan><tspan x="185.92" y="0">e</tspan><tspan x="234.16" y="0" style="letter-spacing: 0.01500363324332311em">r</tspan><tspan x="268.25" y="0">y </tspan><tspan x="335.6" y="0" style="letter-spacing: -0.004988436595587633em">W</tspan><tspan x="424.12" y="0" style="letter-spacing: -0.000006387242760035381em">iz</tspan></text>
      </g>
    </g>
  </g>
</svg>
